<svg width="160" height="160" viewBox="0 0 160 160" fill="none" xmlns="http://www.w3.org/2000/svg">
  <defs>
    <linearGradient id="leafFill" x1="40" y1="28" x2="118" y2="126" gradientUnits="userSpaceOnUse">
      <stop stop-color="#F2F9EA"/>
      <stop offset="0.48" stop-color="#8FD17A"/>
      <stop offset="1" stop-color="#1D6B47"/>
    </linearGradient>
    <linearGradient id="leafShadow" x1="58" y1="38" x2="101" y2="128" gradientUnits="userSpaceOnUse">
      <stop stop-color="#12412C"/>
      <stop offset="1" stop-color="#0D2C1F"/>
    </linearGradient>
  </defs>
  <path d="M82.3 18C53.6 27.5 35.5 47.8 30.8 72.9C25.8 99.7 39.6 123.2 63.4 133.5C90.5 145.1 119.3 133.1 131.4 105.1C143.2 77.8 127.9 39.8 82.3 18Z" fill="url(#leafFill)"/>
  <path d="M58.5 90.6C69.6 83.9 84.6 72.2 103.3 46.8" stroke="url(#leafShadow)" stroke-width="7" stroke-linecap="round"/>
  <path d="M73.5 74.4C68.9 84.1 63.7 95.5 60.9 108.4" stroke="url(#leafShadow)" stroke-width="4.5" stroke-linecap="round" opacity="0.72"/>
  <path d="M84.4 65.9C82.2 78.1 82.6 92.8 85.8 109.9" stroke="url(#leafShadow)" stroke-width="4.5" stroke-linecap="round" opacity="0.62"/>
  <path d="M95 56.1C98.8 68.1 105 81.2 114.4 93.7" stroke="url(#leafShadow)" stroke-width="4.5" stroke-linecap="round" opacity="0.5"/>
</svg>
